<svg width="59" height="59" viewBox="0 0 59 59" fill="none" xmlns="http://www.w3.org/2000/svg">
<path d="M53.6321 26.3146C53.0497 30.7339 50.9759 35.0434 47.2148 38.4598L27.8242 56.0742C26.675 57.119 25.3848 57.8633 24.037 58.3283C20.1036 55.7477 16.8936 52.1564 14.778 47.9226C14.5612 47.489 14.3574 47.0502 14.1668 46.6062C16.46 51.6419 23.0785 53.0915 27.2679 49.2834L41.9754 35.921C50.6938 28.0045 47.4655 13.7567 36.5139 10.1863C38.0549 10.659 39.5359 11.2676 40.9437 12.0015C42.3306 12.7224 43.6443 13.5608 44.8745 14.5089C48.8002 17.5204 51.8639 21.6001 53.6321 26.3146Z" fill="url(#paint0_linear_394_1322)"/>
<path d="M53.7915 22.9819C53.7862 22.8122 53.7784 22.645 53.768 22.4752C53.7601 22.3394 53.7497 22.2062 53.7392 22.0704C53.7001 21.5663 53.64 21.0622 53.5616 20.5607C53.5486 20.4641 53.5329 20.3674 53.5146 20.2708C53.5016 20.1924 53.4885 20.1141 53.4728 20.0357C53.4519 19.9156 53.431 19.7954 53.4049 19.6753C53.384 19.5682 53.3631 19.4637 53.3396 19.3593C53.3161 19.247 53.29 19.1346 53.2639 19.0223C53.2325 18.8944 53.2038 18.769 53.1698 18.641C53.1516 18.5653 53.1307 18.4895 53.1098 18.4138C53.0837 18.3119 53.0549 18.21 53.0262 18.1082C52.9975 17.9985 52.9635 17.8888 52.9322 17.7791C52.7833 17.2907 52.6187 16.8101 52.4359 16.3347C52.3967 16.2355 52.3576 16.1362 52.3184 16.037C52.2687 15.9142 52.2191 15.7941 52.1669 15.6739C52.1173 15.5564 52.0676 15.4388 52.0128 15.3213C52.0102 15.3135 52.0076 15.3056 52.0023 15.2978C51.9527 15.1855 51.9005 15.0706 51.8456 14.9583C51.7908 14.8381 51.7333 14.7206 51.6759 14.603C51.6158 14.4829 51.5557 14.3628 51.4956 14.2452C51.4356 14.1329 51.3755 14.018 51.3128 13.9057C51.1822 13.6628 51.0438 13.4199 50.9001 13.1822C50.7721 12.9706 50.6416 12.7617 50.5057 12.5527C50.4352 12.443 50.3621 12.3333 50.2863 12.2236C50.2132 12.1139 50.1401 12.0068 50.0617 11.8998C49.4976 11.1031 48.8707 10.3431 48.1864 9.63266C48.0871 9.5308 47.9905 9.42893 47.8886 9.32968C45.4831 6.92937 42.388 5.09062 38.6896 4.14512L33.0219 2.69553C32.113 2.59889 31.191 2.55188 30.2559 2.55188C21.7882 2.55188 14.2425 6.49842 9.35834 12.6494C6.36775 16.4183 4.37228 21.0126 3.77416 26.0352C3.64879 27.08 3.5835 28.1456 3.5835 29.2243C3.5835 31.3164 3.8264 33.3537 4.27825 35.3073C4.28087 35.3099 4.28087 35.3126 4.28087 35.3152L10.2098 51.7047C12.3254 57.5526 18.6488 60.1854 24.037 58.3284C20.1036 55.7478 16.8936 52.1565 14.778 47.9227C14.5612 47.4891 14.3575 47.0503 14.1668 46.6063C14.1328 46.5358 14.1041 46.4652 14.0754 46.3921C14.0519 46.3399 14.031 46.2903 14.0101 46.238C13.6914 45.478 13.4067 44.697 13.1612 43.903L7.09385 27.1322C6.38081 25.1628 6.09873 23.1961 6.17447 21.3051C6.17708 21.3051 6.17708 21.3025 6.17708 21.3025V21.2999C6.19275 20.929 6.22148 20.5607 6.26327 20.1951C6.27895 20.0723 6.29462 19.9522 6.31029 19.832C6.34424 19.5891 6.38603 19.3488 6.43043 19.1111C6.45394 18.9936 6.47745 18.8787 6.50095 18.7638C6.50357 18.7559 6.50618 18.7507 6.50618 18.7429C6.55842 18.5104 6.61327 18.2779 6.67595 18.0507C6.73863 17.8209 6.80393 17.5936 6.87706 17.369C6.88229 17.356 6.8849 17.3403 6.89012 17.3246C6.92408 17.2228 6.95803 17.1183 6.9946 17.0164C7.03378 16.9015 7.07557 16.7892 7.11736 16.6769C7.15915 16.5646 7.20355 16.4549 7.24795 16.3426C7.29235 16.2329 7.33937 16.1205 7.38638 16.0108C7.47257 15.8123 7.56137 15.6138 7.6554 15.418C7.66585 15.3997 7.6763 15.3814 7.68413 15.3605C7.73637 15.2534 7.79122 15.1489 7.84607 15.0418C7.90092 14.9374 7.95577 14.8303 8.01323 14.7258C8.12293 14.5247 8.23785 14.3262 8.35538 14.1303C8.36061 14.1225 8.36583 14.1146 8.36844 14.1094C8.43113 14.0075 8.49381 13.9057 8.55911 13.8064C8.80985 13.412 9.08148 13.0307 9.36879 12.6624C9.40274 12.6154 9.4367 12.571 9.47326 12.5266C9.73706 12.1949 10.0139 11.8736 10.3064 11.5628C10.4684 11.3904 10.6355 11.2207 10.8053 11.0561C10.8915 10.9725 10.9777 10.8916 11.0639 10.8106C11.137 10.7401 11.2128 10.6722 11.2885 10.6069C11.3878 10.5129 11.4922 10.4241 11.5967 10.3379C11.6881 10.2595 11.7795 10.1838 11.871 10.1106C11.9676 10.0323 12.0642 9.95392 12.1635 9.87817C12.2366 9.82333 12.3071 9.77109 12.3803 9.71624C12.4926 9.63005 12.6101 9.54647 12.725 9.46811C12.8243 9.4002 12.9209 9.33229 13.0202 9.267C13.1247 9.19648 13.2317 9.12596 13.3388 9.06066C13.4276 9.0032 13.519 8.94835 13.6105 8.8935C13.7254 8.82298 13.8455 8.75246 13.9657 8.68716C14.0597 8.63231 14.1537 8.58008 14.2478 8.53045C14.3757 8.45993 14.5037 8.39463 14.6343 8.32934C14.7179 8.28755 14.8041 8.24576 14.8877 8.20658C14.9974 8.15434 15.1045 8.10472 15.2142 8.05509C15.3239 8.00546 15.4335 7.95845 15.5459 7.91144C15.6556 7.86442 15.7679 7.82002 15.8802 7.77562C15.9925 7.73122 16.1048 7.68943 16.2197 7.64764C16.3268 7.60846 16.4365 7.56928 16.5488 7.53272C16.8936 7.41257 17.2488 7.30809 17.6092 7.21668C17.7268 7.18534 17.8443 7.15661 17.9645 7.13049C18.1812 7.07825 18.4006 7.03385 18.6226 6.99467C18.7454 6.97116 18.8682 6.95027 18.9935 6.93199C19.1189 6.91109 19.2443 6.89281 19.3696 6.87714C19.495 6.86146 19.6204 6.84579 19.7484 6.83273C19.7954 6.8249 19.8476 6.82229 19.8998 6.81706C20.0644 6.80139 20.2289 6.78833 20.3961 6.7805C20.4353 6.77527 20.4771 6.77527 20.5162 6.77266C20.6233 6.76744 20.733 6.76221 20.8401 6.7596C22.2375 6.7152 23.6818 6.86669 25.1497 7.2428L35.161 9.80504L35.511 9.89385C35.5972 9.91474 35.6808 9.93825 35.767 9.96437C35.8558 9.98787 35.9446 10.0114 36.0334 10.0375C36.0464 10.0401 36.0595 10.0453 36.0752 10.0506C36.1666 10.0767 36.2554 10.1054 36.3468 10.1341C36.3546 10.1367 36.3625 10.1394 36.3703 10.1394C36.4173 10.155 36.4669 10.1681 36.514 10.1864C38.055 10.6591 39.5359 11.2677 40.9437 12.0016C42.3306 12.7225 43.6444 13.5609 44.8745 14.509C48.8002 17.5205 51.8639 21.6002 53.6321 26.3147C53.6765 25.9777 53.7131 25.6434 53.7392 25.3065C53.7471 25.2046 53.7549 25.1054 53.7601 25.0035C53.7758 24.7658 53.7889 24.5282 53.7967 24.2905C53.7967 24.22 53.7993 24.152 53.7993 24.0815C53.8019 23.9509 53.8045 23.8177 53.8045 23.6871C53.8045 23.4521 53.7993 23.217 53.7915 22.9819Z" fill="url(#paint1_linear_394_1322)"/>
<path d="M33.0219 2.69559C32.1129 2.59895 31.1909 2.55194 30.2559 2.55194C16.6037 2.55194 5.34911 12.8088 3.77415 26.0353C3.22827 27.4326 2.79992 28.8874 2.49956 30.3866L1.22757 26.8711C-4.24429 11.7431 9.44713 -3.33783 25.0322 0.650496L33.0219 2.69559Z" fill="#25324A"/>
<path d="M33.0219 2.69559C32.1129 2.59895 31.1909 2.55194 30.2559 2.55194C16.6037 2.55194 5.34911 12.8088 3.77415 26.0353C3.64878 27.08 3.58348 28.1457 3.58348 29.2244C3.58348 31.3165 3.82639 33.3537 4.27824 35.3074L2.49956 30.3866L1.22757 26.8711C-4.24429 11.7431 9.44713 -3.33783 25.0322 0.650496L33.0219 2.69559Z" fill="url(#paint2_linear_394_1322)"/>
<path d="M57.8085 52.9793C57.8085 52.9793 57.7641 53.0419 57.6623 53.1386C56.9335 53.8412 53.303 56.406 42.6571 51.3181C40.5571 50.3517 38.3658 49.1529 36.1483 47.7398C36.1404 47.7346 36.1326 47.7294 36.1274 47.7268C34.4323 46.6873 32.6118 45.4936 30.6581 44.1302C30.6581 44.1302 22.6319 38.5774 19.7118 31.6925C18.6853 29.2739 18.1682 26.7247 19.0902 24.1259C19.0902 24.1259 19.1058 24.0867 19.1372 24.0188C19.1319 24.0162 19.1346 24.0162 19.1398 24.0136C19.6073 23.0577 23.6505 16.5698 42.3149 30.3004C42.1216 30.2037 37.3027 27.8243 33.001 26.7378C30.2246 26.0378 27.6597 25.8733 26.6959 27.2132C26.3015 27.7617 26.1631 28.4695 26.2571 29.2948C26.7325 33.6619 33.5495 41.3199 41.7664 46.2041C44.1197 47.6014 46.0394 48.573 47.5987 49.2051C48.445 49.5473 49.3304 49.7902 50.2393 49.8711C51.6602 49.9991 52.8172 49.7771 53.5956 49.1659C55.7321 47.2958 53.4989 42.5501 53.4937 42.5187C53.593 42.5997 60.9715 49.3827 57.8085 52.9793Z" fill="url(#paint3_linear_394_1322)"/>
<defs>
<linearGradient id="paint0_linear_394_1322" x1="14.1669" y1="34.2562" x2="53.6322" y2="34.2562" gradientUnits="userSpaceOnUse">
<stop stop-color="#1A1B36"/>
<stop offset="0.8303" stop-color="#34426A"/>
<stop offset="1" stop-color="#25324A"/>
</linearGradient>
<linearGradient id="paint1_linear_394_1322" x1="3.5836" y1="30.733" x2="53.8046" y2="30.733" gradientUnits="userSpaceOnUse">
<stop stop-color="#384475"/>
<stop offset="0.2545" stop-color="#4F68B1"/>
<stop offset="0.3515" stop-color="#4A5F97"/>
<stop offset="0.503" stop-color="#4A5F97"/>
<stop offset="0.6182" stop-color="#4A5F97"/>
<stop offset="0.8687" stop-color="#202541"/>
<stop offset="1" stop-color="#0D1117"/>
</linearGradient>
<linearGradient id="paint2_linear_394_1322" x1="-2.55488" y1="22.781" x2="34.9966" y2="7.71315" gradientUnits="userSpaceOnUse">
<stop stop-color="#1A1B36"/>
<stop offset="0.0536" stop-color="#1C1D38"/>
<stop offset="0.1057" stop-color="#212340"/>
<stop offset="0.1571" stop-color="#292E4D"/>
<stop offset="0.2082" stop-color="#343D60"/>
<stop offset="0.259" stop-color="#42527D"/>
<stop offset="0.3089" stop-color="#516BA2"/>
<stop offset="0.3172" stop-color="#5471AB"/>
<stop offset="0.3738" stop-color="#4B6296"/>
<stop offset="0.4592" stop-color="#415481"/>
<stop offset="0.5541" stop-color="#3A4A74"/>
<stop offset="0.665" stop-color="#35446C"/>
<stop offset="0.8303" stop-color="#34426A"/>
<stop offset="1" stop-color="#25324A"/>
</linearGradient>
<linearGradient id="paint3_linear_394_1322" x1="18.6107" y1="38.0278" x2="58.5965" y2="38.0278" gradientUnits="userSpaceOnUse">
<stop stop-color="#3F4F85"/>
<stop offset="0.8303" stop-color="#34426A"/>
<stop offset="1" stop-color="#25324A"/>
</linearGradient>
</defs>
</svg>
